M48
;Layer_Color=9474304
;FILE_FORMAT=2:5
INCH,LZ
;TYPE=PLATED
T1F00S00C0.01181
T2F00S00C0.02756
T3F00S00C0.02800
T4F00S00C0.02953
T5F00S00C0.03346
T6F00S00C0.03701
T7F00S00C0.04331
T8F00S00C0.04528
T9F00S00C0.05079
T10F00S00C0.11811
%
T01
X0393701Y0059055
X0423228
X019685
X0206693Y011811
X0255906
X0177165
X0137795Y0049213
X015748Y0019685
X0167323Y0137795
X015748Y019685
X0059055Y0255906
X019685Y0137795
X0295276Y0177165
X0403543Y019685
T02
X002937Y025685
X003937
X011811
X012811
T03
X007874Y0255906
T04
X0236221Y002063
Y0040315
X0295276
Y002063
X015748Y0040315
Y0050157
T05
X0354331Y0039055
Y0079055
Y0099055
X001937Y021748
X005937
X009811
X013811
X0354331Y0139055
T06
X0413386Y007937
Y008937
Y009937
T07
X019685Y009937
X020685
X018685
X017685
T08
X0413386Y0030315
Y0040315
X029559Y0158425
X0285591
X027559
X0393701
X0403701
X0413701
T09
X0245905Y0079685
X0255906
X0265905
T10
X0442913Y0009843
X0009843
Y0285433
X0442913
M30
