G04*
G04 #@! TF.GenerationSoftware,Altium Limited,Altium Designer,20.1.14 (287)*
G04*
G04 Layer_Color=16711935*
%FSLAX25Y25*%
%MOIN*%
G70*
G04*
G04 #@! TF.SameCoordinates,70A92564-7A92-4072-B555-D09A3DD1B993*
G04*
G04*
G04 #@! TF.FilePolarity,Positive*
G04*
G01*
G75*
%ADD11C,0.00787*%
%ADD12C,0.00394*%
%ADD13C,0.01000*%
%ADD14C,0.00197*%
G36*
X326829Y692940D02*
X326869Y692937D01*
X326917Y692933D01*
X326972Y692929D01*
X327088Y692913D01*
X327211Y692889D01*
X327342Y692853D01*
X327470Y692809D01*
X327474D01*
X327486Y692801D01*
X327502Y692793D01*
X327525Y692785D01*
X327553Y692769D01*
X327585Y692753D01*
X327665Y692710D01*
X327748Y692658D01*
X327836Y692594D01*
X327923Y692519D01*
X327999Y692431D01*
X328003Y692427D01*
X328007Y692419D01*
X328019Y692407D01*
X328031Y692387D01*
X328047Y692363D01*
X328067Y692336D01*
X328087Y692300D01*
X328107Y692264D01*
X328130Y692220D01*
X328154Y692172D01*
X328178Y692121D01*
X328202Y692065D01*
X328226Y692005D01*
X328250Y691941D01*
X328290Y691802D01*
X327832Y691679D01*
Y691683D01*
X327828Y691691D01*
X327824Y691707D01*
X327816Y691727D01*
X327808Y691750D01*
X327796Y691782D01*
X327772Y691846D01*
X327740Y691922D01*
X327705Y691997D01*
X327665Y692073D01*
X327617Y692140D01*
X327613Y692148D01*
X327593Y692168D01*
X327565Y692200D01*
X327525Y692236D01*
X327474Y692280D01*
X327410Y692323D01*
X327334Y692367D01*
X327251Y692407D01*
X327247D01*
X327239Y692411D01*
X327227Y692415D01*
X327211Y692423D01*
X327187Y692431D01*
X327159Y692439D01*
X327096Y692459D01*
X327016Y692479D01*
X326928Y692495D01*
X326829Y692507D01*
X326722Y692511D01*
X326662D01*
X326634Y692507D01*
X326598D01*
X326558Y692503D01*
X326519Y692499D01*
X326423Y692483D01*
X326324Y692467D01*
X326220Y692439D01*
X326120Y692403D01*
X326117D01*
X326109Y692399D01*
X326097Y692391D01*
X326077Y692383D01*
X326033Y692359D01*
X325973Y692327D01*
X325910Y692288D01*
X325842Y692240D01*
X325774Y692184D01*
X325711Y692121D01*
X325703Y692113D01*
X325687Y692093D01*
X325659Y692057D01*
X325623Y692009D01*
X325583Y691953D01*
X325543Y691890D01*
X325504Y691818D01*
X325468Y691743D01*
Y691739D01*
X325460Y691727D01*
X325456Y691707D01*
X325444Y691679D01*
X325436Y691647D01*
X325424Y691607D01*
X325408Y691563D01*
X325396Y691512D01*
X325384Y691460D01*
X325368Y691400D01*
X325356Y691336D01*
X325348Y691269D01*
X325332Y691126D01*
X325325Y690970D01*
Y690966D01*
Y690946D01*
Y690923D01*
X325328Y690887D01*
Y690839D01*
X325332Y690791D01*
X325341Y690731D01*
X325348Y690672D01*
X325356Y690604D01*
X325368Y690536D01*
X325400Y690389D01*
X325444Y690246D01*
X325468Y690178D01*
X325500Y690111D01*
X325504Y690107D01*
X325508Y690095D01*
X325519Y690079D01*
X325532Y690055D01*
X325551Y690027D01*
X325571Y689991D01*
X325599Y689956D01*
X325631Y689916D01*
X325703Y689832D01*
X325790Y689748D01*
X325894Y689669D01*
X325953Y689629D01*
X326013Y689597D01*
X326017D01*
X326029Y689589D01*
X326049Y689581D01*
X326073Y689569D01*
X326105Y689557D01*
X326140Y689545D01*
X326184Y689530D01*
X326228Y689514D01*
X326280Y689498D01*
X326335Y689482D01*
X326459Y689458D01*
X326590Y689438D01*
X326729Y689430D01*
X326761D01*
X326785Y689434D01*
X326817D01*
X326849Y689438D01*
X326889Y689442D01*
X326933Y689446D01*
X327032Y689462D01*
X327139Y689482D01*
X327255Y689514D01*
X327374Y689553D01*
X327378D01*
X327390Y689557D01*
X327406Y689565D01*
X327426Y689577D01*
X327454Y689589D01*
X327482Y689601D01*
X327553Y689637D01*
X327629Y689677D01*
X327709Y689725D01*
X327784Y689772D01*
X327852Y689828D01*
Y690545D01*
X326726D01*
Y690998D01*
X328349D01*
Y689573D01*
X328345Y689569D01*
X328333Y689561D01*
X328313Y689545D01*
X328286Y689526D01*
X328250Y689498D01*
X328210Y689470D01*
X328162Y689438D01*
X328115Y689406D01*
X328055Y689370D01*
X327995Y689331D01*
X327868Y689259D01*
X327725Y689187D01*
X327577Y689124D01*
X327573D01*
X327561Y689116D01*
X327537Y689112D01*
X327509Y689100D01*
X327474Y689088D01*
X327430Y689076D01*
X327382Y689064D01*
X327326Y689052D01*
X327267Y689036D01*
X327203Y689024D01*
X327064Y689000D01*
X326917Y688984D01*
X326761Y688976D01*
X326706D01*
X326666Y688980D01*
X326618Y688984D01*
X326558Y688988D01*
X326495Y688996D01*
X326423Y689008D01*
X326343Y689020D01*
X326264Y689036D01*
X326176Y689056D01*
X326089Y689076D01*
X326001Y689104D01*
X325910Y689136D01*
X325822Y689171D01*
X325734Y689215D01*
X325730Y689219D01*
X325715Y689227D01*
X325691Y689239D01*
X325659Y689259D01*
X325619Y689287D01*
X325575Y689315D01*
X325528Y689351D01*
X325476Y689394D01*
X325420Y689442D01*
X325360Y689494D01*
X325305Y689549D01*
X325245Y689613D01*
X325189Y689681D01*
X325133Y689752D01*
X325086Y689832D01*
X325038Y689916D01*
X325034Y689920D01*
X325026Y689935D01*
X325018Y689963D01*
X325002Y689995D01*
X324982Y690039D01*
X324962Y690091D01*
X324942Y690150D01*
X324923Y690214D01*
X324899Y690290D01*
X324879Y690365D01*
X324859Y690453D01*
X324839Y690541D01*
X324823Y690636D01*
X324815Y690731D01*
X324807Y690835D01*
X324803Y690939D01*
Y690946D01*
Y690962D01*
Y690994D01*
X324807Y691034D01*
X324811Y691082D01*
X324815Y691142D01*
X324823Y691209D01*
X324831Y691281D01*
X324843Y691356D01*
X324859Y691440D01*
X324879Y691528D01*
X324903Y691615D01*
X324926Y691707D01*
X324958Y691802D01*
X324994Y691894D01*
X325034Y691985D01*
X325038Y691989D01*
X325046Y692005D01*
X325058Y692033D01*
X325078Y692065D01*
X325102Y692105D01*
X325133Y692152D01*
X325165Y692204D01*
X325205Y692256D01*
X325253Y692316D01*
X325301Y692375D01*
X325356Y692435D01*
X325416Y692495D01*
X325484Y692550D01*
X325551Y692606D01*
X325627Y692658D01*
X325707Y692706D01*
X325711Y692710D01*
X325727Y692718D01*
X325750Y692730D01*
X325786Y692741D01*
X325826Y692761D01*
X325878Y692781D01*
X325934Y692801D01*
X326001Y692825D01*
X326073Y692849D01*
X326148Y692869D01*
X326232Y692889D01*
X326320Y692909D01*
X326415Y692921D01*
X326515Y692933D01*
X326614Y692940D01*
X326722Y692944D01*
X326793D01*
X326829Y692940D01*
D02*
G37*
G36*
X332114Y689040D02*
X331593D01*
X329579Y692053D01*
Y689040D01*
X329094D01*
Y692877D01*
X329611D01*
X331629Y689860D01*
Y692877D01*
X332114D01*
Y689040D01*
D02*
G37*
G36*
X334439Y692873D02*
X334487D01*
X334538Y692869D01*
X334646Y692865D01*
X334761Y692853D01*
X334869Y692841D01*
X334920Y692829D01*
X334968Y692821D01*
X334972D01*
X334984Y692817D01*
X335000Y692813D01*
X335024Y692805D01*
X335052Y692797D01*
X335084Y692785D01*
X335159Y692757D01*
X335247Y692722D01*
X335342Y692674D01*
X335438Y692614D01*
X335529Y692546D01*
X335533Y692543D01*
X335541Y692534D01*
X335557Y692519D01*
X335581Y692499D01*
X335605Y692475D01*
X335633Y692443D01*
X335665Y692407D01*
X335700Y692367D01*
X335736Y692323D01*
X335772Y692272D01*
X335812Y692220D01*
X335848Y692160D01*
X335919Y692033D01*
X335983Y691890D01*
Y691886D01*
X335991Y691870D01*
X335999Y691850D01*
X336007Y691818D01*
X336019Y691782D01*
X336031Y691739D01*
X336043Y691687D01*
X336059Y691627D01*
X336074Y691563D01*
X336087Y691492D01*
X336098Y691416D01*
X336110Y691336D01*
X336122Y691253D01*
X336126Y691165D01*
X336134Y690978D01*
Y690974D01*
Y690958D01*
Y690935D01*
Y690907D01*
X336130Y690867D01*
Y690823D01*
X336126Y690771D01*
X336122Y690716D01*
X336110Y690596D01*
X336090Y690465D01*
X336067Y690334D01*
X336031Y690202D01*
Y690198D01*
X336027Y690186D01*
X336019Y690170D01*
X336011Y690146D01*
X336003Y690119D01*
X335991Y690083D01*
X335959Y690007D01*
X335919Y689916D01*
X335876Y689824D01*
X335824Y689729D01*
X335768Y689641D01*
Y689637D01*
X335760Y689633D01*
X335752Y689621D01*
X335740Y689605D01*
X335708Y689565D01*
X335665Y689518D01*
X335613Y689462D01*
X335553Y689402D01*
X335489Y689347D01*
X335418Y689295D01*
X335414D01*
X335410Y689291D01*
X335398Y689283D01*
X335386Y689275D01*
X335346Y689251D01*
X335291Y689223D01*
X335223Y689191D01*
X335147Y689159D01*
X335056Y689132D01*
X334960Y689104D01*
X334956D01*
X334948Y689100D01*
X334932D01*
X334912Y689096D01*
X334889Y689088D01*
X334857Y689084D01*
X334821Y689080D01*
X334785Y689072D01*
X334741Y689068D01*
X334693Y689060D01*
X334590Y689052D01*
X334474Y689044D01*
X334347Y689040D01*
X332966D01*
Y692877D01*
X334395D01*
X334439Y692873D01*
D02*
G37*
G36*
X248089Y683098D02*
X248129Y683094D01*
X248176Y683090D01*
X248232Y683086D01*
X248347Y683070D01*
X248471Y683046D01*
X248602Y683010D01*
X248730Y682967D01*
X248734D01*
X248745Y682959D01*
X248761Y682951D01*
X248785Y682943D01*
X248813Y682927D01*
X248845Y682911D01*
X248925Y682867D01*
X249008Y682815D01*
X249096Y682752D01*
X249183Y682676D01*
X249259Y682588D01*
X249263Y682584D01*
X249267Y682577D01*
X249279Y682565D01*
X249291Y682545D01*
X249307Y682521D01*
X249327Y682493D01*
X249346Y682457D01*
X249366Y682421D01*
X249390Y682377D01*
X249414Y682330D01*
X249438Y682278D01*
X249462Y682222D01*
X249486Y682163D01*
X249510Y682099D01*
X249550Y681960D01*
X249092Y681836D01*
Y681840D01*
X249088Y681848D01*
X249084Y681864D01*
X249076Y681884D01*
X249068Y681908D01*
X249056Y681940D01*
X249032Y682003D01*
X249000Y682079D01*
X248964Y682155D01*
X248925Y682230D01*
X248877Y682298D01*
X248873Y682306D01*
X248853Y682326D01*
X248825Y682358D01*
X248785Y682394D01*
X248734Y682437D01*
X248670Y682481D01*
X248594Y682525D01*
X248511Y682565D01*
X248507D01*
X248499Y682569D01*
X248487Y682573D01*
X248471Y682581D01*
X248447Y682588D01*
X248419Y682596D01*
X248356Y682616D01*
X248276Y682636D01*
X248188Y682652D01*
X248089Y682664D01*
X247981Y682668D01*
X247922D01*
X247894Y682664D01*
X247858D01*
X247818Y682660D01*
X247778Y682656D01*
X247683Y682640D01*
X247583Y682624D01*
X247480Y682596D01*
X247380Y682561D01*
X247376D01*
X247368Y682557D01*
X247357Y682549D01*
X247337Y682541D01*
X247293Y682517D01*
X247233Y682485D01*
X247169Y682445D01*
X247102Y682398D01*
X247034Y682342D01*
X246970Y682278D01*
X246962Y682270D01*
X246947Y682250D01*
X246919Y682214D01*
X246883Y682167D01*
X246843Y682111D01*
X246803Y682047D01*
X246763Y681976D01*
X246728Y681900D01*
Y681896D01*
X246720Y681884D01*
X246716Y681864D01*
X246704Y681836D01*
X246696Y681804D01*
X246684Y681765D01*
X246668Y681721D01*
X246656Y681669D01*
X246644Y681617D01*
X246628Y681558D01*
X246616Y681494D01*
X246608Y681426D01*
X246592Y681283D01*
X246584Y681128D01*
Y681124D01*
Y681104D01*
Y681080D01*
X246588Y681044D01*
Y680997D01*
X246592Y680949D01*
X246600Y680889D01*
X246608Y680829D01*
X246616Y680762D01*
X246628Y680694D01*
X246660Y680547D01*
X246704Y680404D01*
X246728Y680336D01*
X246760Y680268D01*
X246763Y680264D01*
X246767Y680252D01*
X246779Y680236D01*
X246791Y680212D01*
X246811Y680185D01*
X246831Y680149D01*
X246859Y680113D01*
X246891Y680073D01*
X246962Y679989D01*
X247050Y679906D01*
X247153Y679826D01*
X247213Y679787D01*
X247273Y679755D01*
X247277D01*
X247289Y679747D01*
X247309Y679739D01*
X247333Y679727D01*
X247364Y679715D01*
X247400Y679703D01*
X247444Y679687D01*
X247488Y679671D01*
X247540Y679655D01*
X247595Y679639D01*
X247719Y679615D01*
X247850Y679596D01*
X247989Y679588D01*
X248021D01*
X248045Y679592D01*
X248077D01*
X248109Y679596D01*
X248148Y679600D01*
X248192Y679603D01*
X248292Y679619D01*
X248399Y679639D01*
X248515Y679671D01*
X248634Y679711D01*
X248638D01*
X248650Y679715D01*
X248666Y679723D01*
X248686Y679735D01*
X248714Y679747D01*
X248742Y679759D01*
X248813Y679795D01*
X248889Y679834D01*
X248968Y679882D01*
X249044Y679930D01*
X249112Y679986D01*
Y680702D01*
X247985D01*
Y681156D01*
X249609D01*
Y679731D01*
X249605Y679727D01*
X249593Y679719D01*
X249573Y679703D01*
X249546Y679683D01*
X249510Y679655D01*
X249470Y679627D01*
X249422Y679596D01*
X249374Y679564D01*
X249315Y679528D01*
X249255Y679488D01*
X249128Y679416D01*
X248984Y679345D01*
X248837Y679281D01*
X248833D01*
X248821Y679273D01*
X248797Y679269D01*
X248769Y679257D01*
X248734Y679245D01*
X248690Y679233D01*
X248642Y679221D01*
X248586Y679210D01*
X248527Y679193D01*
X248463Y679182D01*
X248324Y679158D01*
X248176Y679142D01*
X248021Y679134D01*
X247965D01*
X247926Y679138D01*
X247878Y679142D01*
X247818Y679146D01*
X247755Y679154D01*
X247683Y679166D01*
X247603Y679178D01*
X247524Y679193D01*
X247436Y679213D01*
X247348Y679233D01*
X247261Y679261D01*
X247169Y679293D01*
X247082Y679329D01*
X246994Y679373D01*
X246990Y679377D01*
X246974Y679385D01*
X246951Y679396D01*
X246919Y679416D01*
X246879Y679444D01*
X246835Y679472D01*
X246787Y679508D01*
X246736Y679552D01*
X246680Y679600D01*
X246620Y679651D01*
X246565Y679707D01*
X246505Y679771D01*
X246449Y679838D01*
X246393Y679910D01*
X246346Y679989D01*
X246298Y680073D01*
X246294Y680077D01*
X246286Y680093D01*
X246278Y680121D01*
X246262Y680153D01*
X246242Y680197D01*
X246222Y680248D01*
X246202Y680308D01*
X246182Y680372D01*
X246159Y680447D01*
X246139Y680523D01*
X246119Y680610D01*
X246099Y680698D01*
X246083Y680794D01*
X246075Y680889D01*
X246067Y680993D01*
X246063Y681096D01*
Y681104D01*
Y681120D01*
Y681152D01*
X246067Y681191D01*
X246071Y681239D01*
X246075Y681299D01*
X246083Y681367D01*
X246091Y681438D01*
X246103Y681514D01*
X246119Y681598D01*
X246139Y681685D01*
X246163Y681773D01*
X246186Y681864D01*
X246218Y681960D01*
X246254Y682051D01*
X246294Y682143D01*
X246298Y682147D01*
X246306Y682163D01*
X246318Y682191D01*
X246338Y682222D01*
X246361Y682262D01*
X246393Y682310D01*
X246425Y682362D01*
X246465Y682413D01*
X246513Y682473D01*
X246561Y682533D01*
X246616Y682592D01*
X246676Y682652D01*
X246744Y682708D01*
X246811Y682764D01*
X246887Y682815D01*
X246966Y682863D01*
X246970Y682867D01*
X246986Y682875D01*
X247010Y682887D01*
X247046Y682899D01*
X247086Y682919D01*
X247138Y682939D01*
X247193Y682959D01*
X247261Y682982D01*
X247333Y683006D01*
X247408Y683026D01*
X247492Y683046D01*
X247579Y683066D01*
X247675Y683078D01*
X247774Y683090D01*
X247874Y683098D01*
X247981Y683102D01*
X248053D01*
X248089Y683098D01*
D02*
G37*
G36*
X253374Y679198D02*
X252853D01*
X250839Y682210D01*
Y679198D01*
X250353D01*
Y683034D01*
X250871D01*
X252889Y680017D01*
Y683034D01*
X253374D01*
Y679198D01*
D02*
G37*
G36*
X255699Y683030D02*
X255746D01*
X255798Y683026D01*
X255906Y683022D01*
X256021Y683010D01*
X256128Y682998D01*
X256180Y682986D01*
X256228Y682978D01*
X256232D01*
X256244Y682974D01*
X256260Y682971D01*
X256284Y682963D01*
X256311Y682955D01*
X256343Y682943D01*
X256419Y682915D01*
X256506Y682879D01*
X256602Y682831D01*
X256698Y682772D01*
X256789Y682704D01*
X256793Y682700D01*
X256801Y682692D01*
X256817Y682676D01*
X256841Y682656D01*
X256865Y682632D01*
X256893Y682600D01*
X256924Y682565D01*
X256960Y682525D01*
X256996Y682481D01*
X257032Y682429D01*
X257072Y682377D01*
X257107Y682318D01*
X257179Y682191D01*
X257243Y682047D01*
Y682043D01*
X257251Y682027D01*
X257259Y682007D01*
X257267Y681976D01*
X257279Y681940D01*
X257291Y681896D01*
X257302Y681844D01*
X257318Y681784D01*
X257334Y681721D01*
X257346Y681649D01*
X257358Y681574D01*
X257370Y681494D01*
X257382Y681410D01*
X257386Y681323D01*
X257394Y681136D01*
Y681132D01*
Y681116D01*
Y681092D01*
Y681064D01*
X257390Y681024D01*
Y680981D01*
X257386Y680929D01*
X257382Y680873D01*
X257370Y680754D01*
X257350Y680622D01*
X257326Y680491D01*
X257291Y680360D01*
Y680356D01*
X257287Y680344D01*
X257279Y680328D01*
X257271Y680304D01*
X257263Y680276D01*
X257251Y680240D01*
X257219Y680165D01*
X257179Y680073D01*
X257135Y679982D01*
X257084Y679886D01*
X257028Y679799D01*
Y679795D01*
X257020Y679790D01*
X257012Y679779D01*
X257000Y679763D01*
X256968Y679723D01*
X256924Y679675D01*
X256873Y679619D01*
X256813Y679560D01*
X256749Y679504D01*
X256678Y679452D01*
X256674D01*
X256670Y679448D01*
X256658Y679440D01*
X256646Y679432D01*
X256606Y679409D01*
X256550Y679381D01*
X256483Y679349D01*
X256407Y679317D01*
X256315Y679289D01*
X256220Y679261D01*
X256216D01*
X256208Y679257D01*
X256192D01*
X256172Y679253D01*
X256148Y679245D01*
X256117Y679241D01*
X256081Y679237D01*
X256045Y679229D01*
X256001Y679225D01*
X255953Y679217D01*
X255850Y679210D01*
X255734Y679202D01*
X255607Y679198D01*
X254226D01*
Y683034D01*
X255655D01*
X255699Y683030D01*
D02*
G37*
G36*
X21711Y250027D02*
X21751Y250023D01*
X21798Y250019D01*
X21854Y250015D01*
X21970Y249999D01*
X22093Y249975D01*
X22224Y249939D01*
X22352Y249896D01*
X22356D01*
X22368Y249888D01*
X22384Y249880D01*
X22407Y249872D01*
X22435Y249856D01*
X22467Y249840D01*
X22547Y249796D01*
X22630Y249745D01*
X22718Y249681D01*
X22805Y249605D01*
X22881Y249518D01*
X22885Y249514D01*
X22889Y249506D01*
X22901Y249494D01*
X22913Y249474D01*
X22929Y249450D01*
X22949Y249422D01*
X22968Y249386D01*
X22988Y249351D01*
X23012Y249307D01*
X23036Y249259D01*
X23060Y249207D01*
X23084Y249151D01*
X23108Y249092D01*
X23132Y249028D01*
X23171Y248889D01*
X22714Y248765D01*
Y248769D01*
X22710Y248777D01*
X22706Y248793D01*
X22698Y248813D01*
X22690Y248837D01*
X22678Y248869D01*
X22654Y248933D01*
X22622Y249008D01*
X22587Y249084D01*
X22547Y249159D01*
X22499Y249227D01*
X22495Y249235D01*
X22475Y249255D01*
X22447Y249287D01*
X22407Y249323D01*
X22356Y249366D01*
X22292Y249410D01*
X22216Y249454D01*
X22133Y249494D01*
X22129D01*
X22121Y249498D01*
X22109Y249502D01*
X22093Y249510D01*
X22069Y249518D01*
X22041Y249526D01*
X21978Y249546D01*
X21898Y249565D01*
X21810Y249581D01*
X21711Y249593D01*
X21603Y249597D01*
X21544D01*
X21516Y249593D01*
X21480D01*
X21440Y249589D01*
X21400Y249585D01*
X21305Y249569D01*
X21205Y249553D01*
X21102Y249526D01*
X21002Y249490D01*
X20998D01*
X20990Y249486D01*
X20978Y249478D01*
X20959Y249470D01*
X20915Y249446D01*
X20855Y249414D01*
X20791Y249374D01*
X20724Y249327D01*
X20656Y249271D01*
X20593Y249207D01*
X20584Y249199D01*
X20569Y249179D01*
X20541Y249144D01*
X20505Y249096D01*
X20465Y249040D01*
X20425Y248976D01*
X20385Y248905D01*
X20350Y248829D01*
Y248825D01*
X20342Y248813D01*
X20338Y248793D01*
X20326Y248765D01*
X20318Y248734D01*
X20306Y248694D01*
X20290Y248650D01*
X20278Y248598D01*
X20266Y248547D01*
X20250Y248487D01*
X20238Y248423D01*
X20230Y248356D01*
X20214Y248212D01*
X20206Y248057D01*
Y248053D01*
Y248033D01*
Y248009D01*
X20210Y247973D01*
Y247926D01*
X20214Y247878D01*
X20222Y247818D01*
X20230Y247759D01*
X20238Y247691D01*
X20250Y247623D01*
X20282Y247476D01*
X20326Y247333D01*
X20350Y247265D01*
X20381Y247197D01*
X20385Y247193D01*
X20390Y247181D01*
X20401Y247165D01*
X20413Y247142D01*
X20433Y247114D01*
X20453Y247078D01*
X20481Y247042D01*
X20513Y247002D01*
X20584Y246919D01*
X20672Y246835D01*
X20776Y246756D01*
X20835Y246716D01*
X20895Y246684D01*
X20899D01*
X20911Y246676D01*
X20931Y246668D01*
X20955Y246656D01*
X20987Y246644D01*
X21022Y246632D01*
X21066Y246616D01*
X21110Y246600D01*
X21162Y246584D01*
X21217Y246568D01*
X21341Y246545D01*
X21472Y246525D01*
X21611Y246517D01*
X21643D01*
X21667Y246521D01*
X21699D01*
X21731Y246525D01*
X21771Y246529D01*
X21814Y246533D01*
X21914Y246549D01*
X22021Y246568D01*
X22137Y246600D01*
X22256Y246640D01*
X22260D01*
X22272Y246644D01*
X22288Y246652D01*
X22308Y246664D01*
X22336Y246676D01*
X22364Y246688D01*
X22435Y246724D01*
X22511Y246763D01*
X22590Y246811D01*
X22666Y246859D01*
X22734Y246915D01*
Y247631D01*
X21607D01*
Y248085D01*
X23231D01*
Y246660D01*
X23227Y246656D01*
X23215Y246648D01*
X23195Y246632D01*
X23167Y246612D01*
X23132Y246584D01*
X23092Y246556D01*
X23044Y246525D01*
X22996Y246493D01*
X22937Y246457D01*
X22877Y246417D01*
X22750Y246346D01*
X22606Y246274D01*
X22459Y246210D01*
X22455D01*
X22443Y246202D01*
X22419Y246198D01*
X22391Y246186D01*
X22356Y246174D01*
X22312Y246163D01*
X22264Y246151D01*
X22208Y246139D01*
X22149Y246123D01*
X22085Y246111D01*
X21946Y246087D01*
X21798Y246071D01*
X21643Y246063D01*
X21587D01*
X21548Y246067D01*
X21500Y246071D01*
X21440Y246075D01*
X21376Y246083D01*
X21305Y246095D01*
X21225Y246107D01*
X21146Y246123D01*
X21058Y246143D01*
X20971Y246163D01*
X20883Y246190D01*
X20791Y246222D01*
X20704Y246258D01*
X20616Y246302D01*
X20612Y246306D01*
X20596Y246314D01*
X20573Y246326D01*
X20541Y246346D01*
X20501Y246373D01*
X20457Y246401D01*
X20409Y246437D01*
X20358Y246481D01*
X20302Y246529D01*
X20242Y246580D01*
X20187Y246636D01*
X20127Y246700D01*
X20071Y246767D01*
X20015Y246839D01*
X19968Y246919D01*
X19920Y247002D01*
X19916Y247006D01*
X19908Y247022D01*
X19900Y247050D01*
X19884Y247082D01*
X19864Y247126D01*
X19844Y247177D01*
X19824Y247237D01*
X19804Y247301D01*
X19781Y247376D01*
X19761Y247452D01*
X19741Y247540D01*
X19721Y247627D01*
X19705Y247723D01*
X19697Y247818D01*
X19689Y247922D01*
X19685Y248025D01*
Y248033D01*
Y248049D01*
Y248081D01*
X19689Y248121D01*
X19693Y248168D01*
X19697Y248228D01*
X19705Y248296D01*
X19713Y248367D01*
X19725Y248443D01*
X19741Y248527D01*
X19761Y248614D01*
X19784Y248702D01*
X19808Y248793D01*
X19840Y248889D01*
X19876Y248980D01*
X19916Y249072D01*
X19920Y249076D01*
X19928Y249092D01*
X19940Y249120D01*
X19960Y249151D01*
X19984Y249191D01*
X20015Y249239D01*
X20047Y249291D01*
X20087Y249342D01*
X20135Y249402D01*
X20182Y249462D01*
X20238Y249522D01*
X20298Y249581D01*
X20366Y249637D01*
X20433Y249693D01*
X20509Y249745D01*
X20588Y249792D01*
X20593Y249796D01*
X20608Y249804D01*
X20632Y249816D01*
X20668Y249828D01*
X20708Y249848D01*
X20760Y249868D01*
X20815Y249888D01*
X20883Y249912D01*
X20955Y249936D01*
X21030Y249955D01*
X21114Y249975D01*
X21201Y249995D01*
X21297Y250007D01*
X21396Y250019D01*
X21496Y250027D01*
X21603Y250031D01*
X21675D01*
X21711Y250027D01*
D02*
G37*
G36*
X26996Y246127D02*
X26475D01*
X24461Y249139D01*
Y246127D01*
X23976D01*
Y249963D01*
X24493D01*
X26511Y246947D01*
Y249963D01*
X26996D01*
Y246127D01*
D02*
G37*
G36*
X29321Y249959D02*
X29368D01*
X29420Y249955D01*
X29528Y249952D01*
X29643Y249939D01*
X29750Y249928D01*
X29802Y249916D01*
X29850Y249908D01*
X29854D01*
X29866Y249904D01*
X29882Y249900D01*
X29906Y249892D01*
X29934Y249884D01*
X29965Y249872D01*
X30041Y249844D01*
X30129Y249808D01*
X30224Y249760D01*
X30320Y249701D01*
X30411Y249633D01*
X30415Y249629D01*
X30423Y249621D01*
X30439Y249605D01*
X30463Y249585D01*
X30487Y249561D01*
X30515Y249530D01*
X30547Y249494D01*
X30582Y249454D01*
X30618Y249410D01*
X30654Y249358D01*
X30694Y249307D01*
X30729Y249247D01*
X30801Y249120D01*
X30865Y248976D01*
Y248972D01*
X30873Y248956D01*
X30881Y248937D01*
X30889Y248905D01*
X30901Y248869D01*
X30913Y248825D01*
X30925Y248773D01*
X30940Y248714D01*
X30956Y248650D01*
X30968Y248578D01*
X30980Y248503D01*
X30992Y248423D01*
X31004Y248340D01*
X31008Y248252D01*
X31016Y248065D01*
Y248061D01*
Y248045D01*
Y248021D01*
Y247993D01*
X31012Y247954D01*
Y247910D01*
X31008Y247858D01*
X31004Y247802D01*
X30992Y247683D01*
X30972Y247551D01*
X30948Y247420D01*
X30913Y247289D01*
Y247285D01*
X30909Y247273D01*
X30901Y247257D01*
X30893Y247233D01*
X30885Y247205D01*
X30873Y247169D01*
X30841Y247094D01*
X30801Y247002D01*
X30757Y246911D01*
X30706Y246815D01*
X30650Y246728D01*
Y246724D01*
X30642Y246720D01*
X30634Y246708D01*
X30622Y246692D01*
X30590Y246652D01*
X30547Y246604D01*
X30495Y246549D01*
X30435Y246489D01*
X30371Y246433D01*
X30300Y246381D01*
X30296D01*
X30292Y246377D01*
X30280Y246370D01*
X30268Y246361D01*
X30228Y246338D01*
X30172Y246310D01*
X30105Y246278D01*
X30029Y246246D01*
X29937Y246218D01*
X29842Y246190D01*
X29838D01*
X29830Y246186D01*
X29814D01*
X29794Y246182D01*
X29770Y246174D01*
X29739Y246170D01*
X29703Y246166D01*
X29667Y246159D01*
X29623Y246154D01*
X29575Y246147D01*
X29472Y246139D01*
X29356Y246131D01*
X29229Y246127D01*
X27848D01*
Y249963D01*
X29277D01*
X29321Y249959D01*
D02*
G37*
G36*
X100451Y259870D02*
X100491Y259866D01*
X100539Y259862D01*
X100594Y259858D01*
X100710Y259842D01*
X100833Y259818D01*
X100964Y259782D01*
X101092Y259738D01*
X101096D01*
X101108Y259730D01*
X101124Y259722D01*
X101147Y259714D01*
X101175Y259699D01*
X101207Y259682D01*
X101287Y259639D01*
X101370Y259587D01*
X101458Y259523D01*
X101546Y259448D01*
X101621Y259360D01*
X101625Y259356D01*
X101629Y259348D01*
X101641Y259336D01*
X101653Y259316D01*
X101669Y259293D01*
X101689Y259265D01*
X101709Y259229D01*
X101729Y259193D01*
X101752Y259149D01*
X101776Y259102D01*
X101800Y259050D01*
X101824Y258994D01*
X101848Y258934D01*
X101872Y258871D01*
X101912Y258731D01*
X101454Y258608D01*
Y258612D01*
X101450Y258620D01*
X101446Y258636D01*
X101438Y258656D01*
X101430Y258680D01*
X101418Y258711D01*
X101394Y258775D01*
X101362Y258851D01*
X101327Y258926D01*
X101287Y259002D01*
X101239Y259070D01*
X101235Y259078D01*
X101215Y259098D01*
X101187Y259129D01*
X101147Y259165D01*
X101096Y259209D01*
X101032Y259253D01*
X100956Y259296D01*
X100873Y259336D01*
X100869D01*
X100861Y259340D01*
X100849Y259344D01*
X100833Y259352D01*
X100809Y259360D01*
X100781Y259368D01*
X100718Y259388D01*
X100638Y259408D01*
X100550Y259424D01*
X100451Y259436D01*
X100344Y259440D01*
X100284D01*
X100256Y259436D01*
X100220D01*
X100180Y259432D01*
X100141Y259428D01*
X100045Y259412D01*
X99946Y259396D01*
X99842Y259368D01*
X99743Y259332D01*
X99739D01*
X99731Y259328D01*
X99719Y259320D01*
X99699Y259312D01*
X99655Y259289D01*
X99595Y259257D01*
X99532Y259217D01*
X99464Y259169D01*
X99396Y259113D01*
X99333Y259050D01*
X99325Y259042D01*
X99309Y259022D01*
X99281Y258986D01*
X99245Y258938D01*
X99205Y258882D01*
X99165Y258819D01*
X99126Y258747D01*
X99090Y258672D01*
Y258668D01*
X99082Y258656D01*
X99078Y258636D01*
X99066Y258608D01*
X99058Y258576D01*
X99046Y258536D01*
X99030Y258492D01*
X99018Y258441D01*
X99006Y258389D01*
X98990Y258329D01*
X98978Y258266D01*
X98971Y258198D01*
X98954Y258055D01*
X98947Y257899D01*
Y257895D01*
Y257876D01*
Y257852D01*
X98951Y257816D01*
Y257768D01*
X98954Y257720D01*
X98962Y257661D01*
X98971Y257601D01*
X98978Y257533D01*
X98990Y257466D01*
X99022Y257318D01*
X99066Y257175D01*
X99090Y257107D01*
X99122Y257040D01*
X99126Y257036D01*
X99130Y257024D01*
X99142Y257008D01*
X99154Y256984D01*
X99173Y256956D01*
X99193Y256920D01*
X99221Y256885D01*
X99253Y256845D01*
X99325Y256761D01*
X99412Y256678D01*
X99516Y256598D01*
X99575Y256558D01*
X99635Y256526D01*
X99639D01*
X99651Y256518D01*
X99671Y256510D01*
X99695Y256499D01*
X99727Y256487D01*
X99762Y256475D01*
X99806Y256459D01*
X99850Y256443D01*
X99902Y256427D01*
X99958Y256411D01*
X100081Y256387D01*
X100212Y256367D01*
X100352Y256359D01*
X100383D01*
X100407Y256363D01*
X100439D01*
X100471Y256367D01*
X100511Y256371D01*
X100555Y256375D01*
X100654Y256391D01*
X100761Y256411D01*
X100877Y256443D01*
X100996Y256483D01*
X101000D01*
X101012Y256487D01*
X101028Y256494D01*
X101048Y256506D01*
X101076Y256518D01*
X101104Y256530D01*
X101175Y256566D01*
X101251Y256606D01*
X101331Y256654D01*
X101406Y256701D01*
X101474Y256757D01*
Y257474D01*
X100347D01*
Y257927D01*
X101971D01*
Y256503D01*
X101967Y256499D01*
X101955Y256491D01*
X101936Y256475D01*
X101908Y256455D01*
X101872Y256427D01*
X101832Y256399D01*
X101784Y256367D01*
X101737Y256335D01*
X101677Y256299D01*
X101617Y256260D01*
X101490Y256188D01*
X101347Y256116D01*
X101199Y256053D01*
X101195D01*
X101183Y256045D01*
X101160Y256041D01*
X101132Y256029D01*
X101096Y256017D01*
X101052Y256005D01*
X101004Y255993D01*
X100949Y255981D01*
X100889Y255965D01*
X100825Y255953D01*
X100686Y255929D01*
X100539Y255913D01*
X100383Y255906D01*
X100328D01*
X100288Y255909D01*
X100240Y255913D01*
X100180Y255918D01*
X100117Y255925D01*
X100045Y255937D01*
X99966Y255949D01*
X99886Y255965D01*
X99798Y255985D01*
X99711Y256005D01*
X99623Y256033D01*
X99532Y256065D01*
X99444Y256101D01*
X99357Y256144D01*
X99353Y256148D01*
X99337Y256156D01*
X99313Y256168D01*
X99281Y256188D01*
X99241Y256216D01*
X99197Y256244D01*
X99150Y256280D01*
X99098Y256323D01*
X99042Y256371D01*
X98982Y256423D01*
X98927Y256479D01*
X98867Y256542D01*
X98811Y256610D01*
X98756Y256682D01*
X98708Y256761D01*
X98660Y256845D01*
X98656Y256849D01*
X98648Y256865D01*
X98640Y256892D01*
X98624Y256924D01*
X98604Y256968D01*
X98584Y257020D01*
X98564Y257080D01*
X98545Y257143D01*
X98521Y257219D01*
X98501Y257295D01*
X98481Y257382D01*
X98461Y257470D01*
X98445Y257565D01*
X98437Y257661D01*
X98429Y257764D01*
X98425Y257868D01*
Y257876D01*
Y257892D01*
Y257923D01*
X98429Y257963D01*
X98433Y258011D01*
X98437Y258071D01*
X98445Y258138D01*
X98453Y258210D01*
X98465Y258286D01*
X98481Y258369D01*
X98501Y258457D01*
X98525Y258544D01*
X98549Y258636D01*
X98580Y258731D01*
X98616Y258823D01*
X98656Y258914D01*
X98660Y258918D01*
X98668Y258934D01*
X98680Y258962D01*
X98700Y258994D01*
X98724Y259034D01*
X98756Y259082D01*
X98787Y259133D01*
X98827Y259185D01*
X98875Y259245D01*
X98923Y259304D01*
X98978Y259364D01*
X99038Y259424D01*
X99106Y259480D01*
X99173Y259535D01*
X99249Y259587D01*
X99329Y259635D01*
X99333Y259639D01*
X99349Y259647D01*
X99372Y259659D01*
X99408Y259671D01*
X99448Y259690D01*
X99500Y259710D01*
X99555Y259730D01*
X99623Y259754D01*
X99695Y259778D01*
X99770Y259798D01*
X99854Y259818D01*
X99942Y259838D01*
X100037Y259850D01*
X100137Y259862D01*
X100236Y259870D01*
X100344Y259874D01*
X100415D01*
X100451Y259870D01*
D02*
G37*
G36*
X105736Y255969D02*
X105215D01*
X103201Y258982D01*
Y255969D01*
X102716D01*
Y259806D01*
X103233D01*
X105251Y256789D01*
Y259806D01*
X105736D01*
Y255969D01*
D02*
G37*
G36*
X108061Y259802D02*
X108108D01*
X108160Y259798D01*
X108268Y259794D01*
X108383Y259782D01*
X108491Y259770D01*
X108542Y259758D01*
X108590Y259750D01*
X108594D01*
X108606Y259746D01*
X108622Y259742D01*
X108646Y259734D01*
X108674Y259726D01*
X108705Y259714D01*
X108781Y259686D01*
X108869Y259651D01*
X108964Y259603D01*
X109060Y259543D01*
X109151Y259476D01*
X109155Y259472D01*
X109163Y259464D01*
X109179Y259448D01*
X109203Y259428D01*
X109227Y259404D01*
X109255Y259372D01*
X109287Y259336D01*
X109322Y259296D01*
X109358Y259253D01*
X109394Y259201D01*
X109434Y259149D01*
X109470Y259089D01*
X109541Y258962D01*
X109605Y258819D01*
Y258815D01*
X109613Y258799D01*
X109621Y258779D01*
X109629Y258747D01*
X109641Y258711D01*
X109653Y258668D01*
X109665Y258616D01*
X109681Y258556D01*
X109697Y258492D01*
X109708Y258421D01*
X109720Y258345D01*
X109732Y258266D01*
X109744Y258182D01*
X109748Y258095D01*
X109756Y257908D01*
Y257904D01*
Y257888D01*
Y257864D01*
Y257836D01*
X109752Y257796D01*
Y257752D01*
X109748Y257700D01*
X109744Y257645D01*
X109732Y257525D01*
X109713Y257394D01*
X109689Y257263D01*
X109653Y257131D01*
Y257127D01*
X109649Y257115D01*
X109641Y257100D01*
X109633Y257076D01*
X109625Y257048D01*
X109613Y257012D01*
X109581Y256936D01*
X109541Y256845D01*
X109498Y256753D01*
X109446Y256658D01*
X109390Y256570D01*
Y256566D01*
X109382Y256562D01*
X109374Y256550D01*
X109362Y256534D01*
X109330Y256494D01*
X109287Y256447D01*
X109235Y256391D01*
X109175Y256331D01*
X109111Y256276D01*
X109040Y256224D01*
X109036D01*
X109032Y256220D01*
X109020Y256212D01*
X109008Y256204D01*
X108968Y256180D01*
X108913Y256152D01*
X108845Y256120D01*
X108769Y256089D01*
X108678Y256061D01*
X108582Y256033D01*
X108578D01*
X108570Y256029D01*
X108554D01*
X108534Y256025D01*
X108510Y256017D01*
X108479Y256013D01*
X108443Y256009D01*
X108407Y256001D01*
X108363Y255997D01*
X108316Y255989D01*
X108212Y255981D01*
X108097Y255973D01*
X107969Y255969D01*
X106588D01*
Y259806D01*
X108017D01*
X108061Y259802D01*
D02*
G37*
%LPC*%
G36*
X334359Y692423D02*
X333476D01*
Y689494D01*
X334355D01*
X334387Y689498D01*
X334463D01*
X334506Y689502D01*
X334602Y689510D01*
X334701Y689522D01*
X334797Y689538D01*
X334885Y689561D01*
X334889D01*
X334893Y689565D01*
X334904Y689569D01*
X334920Y689573D01*
X334960Y689589D01*
X335008Y689613D01*
X335064Y689641D01*
X335123Y689677D01*
X335179Y689717D01*
X335231Y689760D01*
X335235Y689764D01*
X335239Y689768D01*
X335247Y689780D01*
X335259Y689792D01*
X335294Y689836D01*
X335334Y689892D01*
X335378Y689959D01*
X335426Y690043D01*
X335470Y690138D01*
X335509Y690246D01*
Y690250D01*
X335513Y690262D01*
X335517Y690278D01*
X335525Y690302D01*
X335533Y690330D01*
X335541Y690365D01*
X335553Y690405D01*
X335561Y690453D01*
X335569Y690505D01*
X335581Y690560D01*
X335589Y690624D01*
X335597Y690688D01*
X335605Y690755D01*
X335609Y690831D01*
X335613Y690986D01*
Y690994D01*
Y691014D01*
Y691046D01*
X335609Y691086D01*
Y691138D01*
X335601Y691193D01*
X335597Y691257D01*
X335589Y691328D01*
X335565Y691476D01*
X335529Y691631D01*
X335505Y691707D01*
X335482Y691778D01*
X335450Y691846D01*
X335414Y691910D01*
X335410Y691914D01*
X335406Y691926D01*
X335394Y691941D01*
X335378Y691961D01*
X335358Y691989D01*
X335334Y692017D01*
X335279Y692085D01*
X335211Y692156D01*
X335127Y692228D01*
X335036Y692292D01*
X334984Y692320D01*
X334932Y692344D01*
X334928D01*
X334924Y692347D01*
X334912Y692351D01*
X334893Y692355D01*
X334873Y692363D01*
X334845Y692367D01*
X334813Y692375D01*
X334773Y692383D01*
X334733Y692391D01*
X334685Y692399D01*
X334630Y692403D01*
X334570Y692411D01*
X334506Y692415D01*
X334439Y692419D01*
X334359Y692423D01*
D02*
G37*
G36*
X255619Y682581D02*
X254735D01*
Y679651D01*
X255615D01*
X255647Y679655D01*
X255722D01*
X255766Y679659D01*
X255862Y679667D01*
X255961Y679679D01*
X256057Y679695D01*
X256144Y679719D01*
X256148D01*
X256152Y679723D01*
X256164Y679727D01*
X256180Y679731D01*
X256220Y679747D01*
X256268Y679771D01*
X256323Y679799D01*
X256383Y679834D01*
X256439Y679874D01*
X256491Y679918D01*
X256495Y679922D01*
X256499Y679926D01*
X256506Y679938D01*
X256518Y679950D01*
X256554Y679993D01*
X256594Y680049D01*
X256638Y680117D01*
X256686Y680200D01*
X256729Y680296D01*
X256769Y680404D01*
Y680407D01*
X256773Y680419D01*
X256777Y680435D01*
X256785Y680459D01*
X256793Y680487D01*
X256801Y680523D01*
X256813Y680563D01*
X256821Y680610D01*
X256829Y680662D01*
X256841Y680718D01*
X256849Y680782D01*
X256857Y680845D01*
X256865Y680913D01*
X256869Y680989D01*
X256873Y681144D01*
Y681152D01*
Y681172D01*
Y681203D01*
X256869Y681243D01*
Y681295D01*
X256861Y681351D01*
X256857Y681414D01*
X256849Y681486D01*
X256825Y681633D01*
X256789Y681788D01*
X256765Y681864D01*
X256741Y681936D01*
X256710Y682003D01*
X256674Y682067D01*
X256670Y682071D01*
X256666Y682083D01*
X256654Y682099D01*
X256638Y682119D01*
X256618Y682147D01*
X256594Y682175D01*
X256538Y682242D01*
X256471Y682314D01*
X256387Y682385D01*
X256296Y682449D01*
X256244Y682477D01*
X256192Y682501D01*
X256188D01*
X256184Y682505D01*
X256172Y682509D01*
X256152Y682513D01*
X256132Y682521D01*
X256104Y682525D01*
X256073Y682533D01*
X256033Y682541D01*
X255993Y682549D01*
X255945Y682557D01*
X255890Y682561D01*
X255830Y682569D01*
X255766Y682573D01*
X255699Y682577D01*
X255619Y682581D01*
D02*
G37*
G36*
X29241Y249510D02*
X28357D01*
Y246580D01*
X29237D01*
X29269Y246584D01*
X29344D01*
X29388Y246588D01*
X29484Y246596D01*
X29583Y246608D01*
X29679Y246624D01*
X29766Y246648D01*
X29770D01*
X29774Y246652D01*
X29786Y246656D01*
X29802Y246660D01*
X29842Y246676D01*
X29890Y246700D01*
X29945Y246728D01*
X30005Y246763D01*
X30061Y246803D01*
X30113Y246847D01*
X30117Y246851D01*
X30121Y246855D01*
X30129Y246867D01*
X30141Y246879D01*
X30176Y246923D01*
X30216Y246978D01*
X30260Y247046D01*
X30308Y247130D01*
X30351Y247225D01*
X30391Y247333D01*
Y247337D01*
X30395Y247348D01*
X30399Y247364D01*
X30407Y247388D01*
X30415Y247416D01*
X30423Y247452D01*
X30435Y247492D01*
X30443Y247540D01*
X30451Y247591D01*
X30463Y247647D01*
X30471Y247711D01*
X30479Y247774D01*
X30487Y247842D01*
X30491Y247918D01*
X30495Y248073D01*
Y248081D01*
Y248101D01*
Y248133D01*
X30491Y248172D01*
Y248224D01*
X30483Y248280D01*
X30479Y248343D01*
X30471Y248415D01*
X30447Y248562D01*
X30411Y248718D01*
X30387Y248793D01*
X30363Y248865D01*
X30332Y248933D01*
X30296Y248996D01*
X30292Y249000D01*
X30288Y249012D01*
X30276Y249028D01*
X30260Y249048D01*
X30240Y249076D01*
X30216Y249104D01*
X30160Y249171D01*
X30093Y249243D01*
X30009Y249315D01*
X29918Y249378D01*
X29866Y249406D01*
X29814Y249430D01*
X29810D01*
X29806Y249434D01*
X29794Y249438D01*
X29774Y249442D01*
X29754Y249450D01*
X29727Y249454D01*
X29695Y249462D01*
X29655Y249470D01*
X29615Y249478D01*
X29567Y249486D01*
X29512Y249490D01*
X29452Y249498D01*
X29388Y249502D01*
X29321Y249506D01*
X29241Y249510D01*
D02*
G37*
G36*
X107981Y259352D02*
X107098D01*
Y256423D01*
X107977D01*
X108009Y256427D01*
X108085D01*
X108128Y256431D01*
X108224Y256439D01*
X108324Y256451D01*
X108419Y256467D01*
X108507Y256491D01*
X108510D01*
X108514Y256494D01*
X108526Y256499D01*
X108542Y256503D01*
X108582Y256518D01*
X108630Y256542D01*
X108686Y256570D01*
X108745Y256606D01*
X108801Y256646D01*
X108853Y256690D01*
X108857Y256694D01*
X108861Y256698D01*
X108869Y256710D01*
X108881Y256721D01*
X108916Y256765D01*
X108956Y256821D01*
X109000Y256889D01*
X109048Y256972D01*
X109092Y257068D01*
X109131Y257175D01*
Y257179D01*
X109135Y257191D01*
X109139Y257207D01*
X109147Y257231D01*
X109155Y257259D01*
X109163Y257295D01*
X109175Y257334D01*
X109183Y257382D01*
X109191Y257434D01*
X109203Y257490D01*
X109211Y257553D01*
X109219Y257617D01*
X109227Y257685D01*
X109231Y257760D01*
X109235Y257915D01*
Y257923D01*
Y257943D01*
Y257975D01*
X109231Y258015D01*
Y258067D01*
X109223Y258122D01*
X109219Y258186D01*
X109211Y258258D01*
X109187Y258405D01*
X109151Y258560D01*
X109127Y258636D01*
X109104Y258707D01*
X109072Y258775D01*
X109036Y258839D01*
X109032Y258843D01*
X109028Y258855D01*
X109016Y258871D01*
X109000Y258891D01*
X108980Y258918D01*
X108956Y258946D01*
X108901Y259014D01*
X108833Y259085D01*
X108749Y259157D01*
X108658Y259221D01*
X108606Y259249D01*
X108554Y259273D01*
X108550D01*
X108546Y259277D01*
X108534Y259280D01*
X108514Y259284D01*
X108495Y259293D01*
X108467Y259296D01*
X108435Y259304D01*
X108395Y259312D01*
X108355Y259320D01*
X108308Y259328D01*
X108252Y259332D01*
X108192Y259340D01*
X108128Y259344D01*
X108061Y259348D01*
X107981Y259352D01*
D02*
G37*
%LPD*%
D11*
X107462Y-1154D02*
Y177362D01*
X32853D02*
X107462D01*
X32853Y-1154D02*
Y177362D01*
Y-1154D02*
X107462D01*
X418615Y96128D02*
G03*
X418627Y82622I-5671J-6758D01*
G01*
X45591Y256850D02*
G03*
X23150Y256850I-11220J0D01*
G01*
D02*
G03*
X45591Y256850I11220J0D01*
G01*
X134331D02*
G03*
X111890Y256850I-11220J0D01*
G01*
D02*
G03*
X134331Y256850I11220J0D01*
G01*
X418622Y82618D02*
Y96122D01*
X290158Y22598D02*
Y38346D01*
X300394D01*
Y22598D02*
Y38346D01*
X290158Y22598D02*
X300394D01*
X241339D02*
Y38346D01*
X231102Y22598D02*
X241339D01*
X231102D02*
Y38346D01*
X241339D01*
D12*
X0Y0D02*
X452756D01*
Y295276D01*
X0D02*
X452756D01*
X169882Y45236D02*
G03*
X169882Y45236I-12402J0D01*
G01*
X408740Y25413D02*
X418032D01*
X408740D02*
Y45217D01*
X418032D01*
Y25413D02*
Y45217D01*
X212539Y93878D02*
Y104862D01*
X171161Y93878D02*
X212539D01*
X171161D02*
Y104862D01*
X212539D01*
X418701Y153524D02*
Y163327D01*
X388701Y153524D02*
X418701D01*
X388701D02*
Y163327D01*
X418701D01*
X300590Y153524D02*
Y163327D01*
X270590Y153524D02*
X300590D01*
X270590D02*
Y163327D01*
X300590D01*
X235157Y67087D02*
X276654D01*
X235157D02*
Y85590D01*
X276654D01*
Y67087D02*
Y85590D01*
X271654Y67087D02*
X276654Y72087D01*
X19213Y272008D02*
X49528D01*
Y241693D02*
Y272008D01*
X19213Y241693D02*
X49528D01*
X19213D02*
Y272008D01*
X107953D02*
X138268D01*
Y241693D02*
Y272008D01*
X107953Y241693D02*
X138268D01*
X107953D02*
Y272008D01*
X286221Y14331D02*
Y46614D01*
X304331D01*
Y14331D02*
Y46614D01*
X286221Y14331D02*
X304331D01*
X245276D02*
Y46614D01*
X227165Y14331D02*
X245276D01*
X227165D02*
Y46614D01*
X245276D01*
D13*
X365173Y691976D02*
X369172D01*
X367173Y693975D02*
Y689976D01*
X266748Y682133D02*
X270747D01*
X268747Y684132D02*
Y680134D01*
X247063Y508967D02*
Y502969D01*
X250062D01*
X251062Y503968D01*
Y507967D01*
X250062Y508967D01*
X247063D01*
X253061D02*
X257060D01*
Y507967D01*
X253061Y503968D01*
Y502969D01*
X345488Y468597D02*
X346488Y469596D01*
X348487D01*
X349487Y468597D01*
Y467597D01*
X348487Y466598D01*
X347487D01*
X348487D01*
X349487Y465598D01*
Y464598D01*
X348487Y463598D01*
X346488D01*
X345488Y464598D01*
X351486Y463598D02*
Y464598D01*
X352486D01*
Y463598D01*
X351486D01*
X356485Y468597D02*
X357484Y469596D01*
X359484D01*
X360483Y468597D01*
Y467597D01*
X359484Y466598D01*
X358484D01*
X359484D01*
X360483Y465598D01*
Y464598D01*
X359484Y463598D01*
X357484D01*
X356485Y464598D01*
X362483Y469596D02*
Y465598D01*
X364482Y463598D01*
X366481Y465598D01*
Y469596D01*
X654605Y478439D02*
X653605Y479439D01*
X651606D01*
X650606Y478439D01*
Y474441D01*
X651606Y473441D01*
X653605D01*
X654605Y474441D01*
Y476440D01*
X652606D01*
X656604Y473441D02*
Y479439D01*
X660603Y473441D01*
Y479439D01*
X662602D02*
Y473441D01*
X665601D01*
X666601Y474441D01*
Y478439D01*
X665601Y479439D01*
X662602D01*
X615235Y577864D02*
X611236D01*
Y574865D01*
X613236Y575865D01*
X614235D01*
X615235Y574865D01*
Y572866D01*
X614235Y571866D01*
X612236D01*
X611236Y572866D01*
X617234Y577864D02*
Y573866D01*
X619234Y571866D01*
X621233Y573866D01*
Y577864D01*
X654605Y517809D02*
X653605Y518809D01*
X651606D01*
X650606Y517809D01*
Y513811D01*
X651606Y512811D01*
X653605D01*
X654605Y513811D01*
Y515810D01*
X652606D01*
X654605Y527652D02*
X653605Y528652D01*
X651606D01*
X650606Y527652D01*
Y526652D01*
X651606Y525653D01*
X653605D01*
X654605Y524653D01*
Y523653D01*
X653605Y522653D01*
X651606D01*
X650606Y523653D01*
Y508967D02*
Y502969D01*
X653605D01*
X654605Y503968D01*
Y507967D01*
X653605Y508967D01*
X650606D01*
X654605Y586707D02*
X653605Y587707D01*
X651606D01*
X650606Y586707D01*
Y582708D01*
X651606Y581709D01*
X653605D01*
X654605Y582708D01*
Y584708D01*
X652606D01*
X656604Y581709D02*
Y587707D01*
X660603Y581709D01*
Y587707D01*
X662602D02*
Y581709D01*
X665601D01*
X666601Y582708D01*
Y586707D01*
X665601Y587707D01*
X662602D01*
X630921Y571866D02*
Y575865D01*
X632921Y577864D01*
X634920Y575865D01*
Y571866D01*
Y574865D01*
X630921D01*
X502969Y518809D02*
X504968D01*
X503968D01*
Y512811D01*
X502969D01*
X504968D01*
X507967D02*
Y518809D01*
X511966Y512811D01*
Y518809D01*
X446912D02*
X444913D01*
X443913Y517809D01*
Y513811D01*
X444913Y512811D01*
X446912D01*
X447912Y513811D01*
Y517809D01*
X446912Y518809D01*
X449911D02*
Y513811D01*
X450911Y512811D01*
X452911D01*
X453910Y513811D01*
Y518809D01*
X455909D02*
X459908D01*
X457909D01*
Y512811D01*
X447912Y537494D02*
X446912Y538494D01*
X444913D01*
X443913Y537494D01*
Y533496D01*
X444913Y532496D01*
X446912D01*
X447912Y533496D01*
Y535495D01*
X445913D01*
X449911Y532496D02*
Y538494D01*
X453910Y532496D01*
Y538494D01*
X455909D02*
Y532496D01*
X458909D01*
X459908Y533496D01*
Y537494D01*
X458909Y538494D01*
X455909D01*
X339644Y537494D02*
X338645Y538494D01*
X336645D01*
X335646Y537494D01*
Y536495D01*
X336645Y535495D01*
X338645D01*
X339644Y534495D01*
Y533496D01*
X338645Y532496D01*
X336645D01*
X335646Y533496D01*
X345642Y537494D02*
X344643Y538494D01*
X342643D01*
X341644Y537494D01*
Y533496D01*
X342643Y532496D01*
X344643D01*
X345642Y533496D01*
X347642Y538494D02*
Y532496D01*
X351641D01*
X345488Y449911D02*
Y443913D01*
X348487D01*
X349487Y444913D01*
Y448912D01*
X348487Y449911D01*
X345488D01*
X351486Y443913D02*
X353486D01*
X352486D01*
Y449911D01*
X351486Y448912D01*
X356485D02*
X357484Y449911D01*
X359484D01*
X360483Y448912D01*
Y447912D01*
X359484Y446912D01*
X358484D01*
X359484D01*
X360483Y445913D01*
Y444913D01*
X359484Y443913D01*
X357484D01*
X356485Y444913D01*
X477440Y527652D02*
X476440Y528652D01*
X474441D01*
X473441Y527652D01*
Y523653D01*
X474441Y522653D01*
X476440D01*
X477440Y523653D01*
Y525653D01*
X475440D01*
X479439Y522653D02*
Y528652D01*
X483438Y522653D01*
Y528652D01*
X485437D02*
Y522653D01*
X488436D01*
X489436Y523653D01*
Y527652D01*
X488436Y528652D01*
X485437D01*
X414386Y517809D02*
X415385Y518809D01*
X417385D01*
X418385Y517809D01*
Y516810D01*
X417385Y515810D01*
X416385D01*
X417385D01*
X418385Y514810D01*
Y513811D01*
X417385Y512811D01*
X415385D01*
X414386Y513811D01*
X420384Y512811D02*
Y513811D01*
X421384D01*
Y512811D01*
X420384D01*
X425382Y517809D02*
X426382Y518809D01*
X428381D01*
X429381Y517809D01*
Y516810D01*
X428381Y515810D01*
X427382D01*
X428381D01*
X429381Y514810D01*
Y513811D01*
X428381Y512811D01*
X426382D01*
X425382Y513811D01*
X431380Y518809D02*
Y514810D01*
X433380Y512811D01*
X435379Y514810D01*
Y518809D01*
X339644Y527652D02*
X338645Y528652D01*
X336645D01*
X335646Y527652D01*
Y526652D01*
X336645Y525653D01*
X338645D01*
X339644Y524653D01*
Y523653D01*
X338645Y522653D01*
X336645D01*
X335646Y523653D01*
X341644Y528652D02*
Y522653D01*
X344643D01*
X345642Y523653D01*
Y527652D01*
X344643Y528652D01*
X341644D01*
X347642Y522653D02*
Y526652D01*
X349641Y528652D01*
X351641Y526652D01*
Y522653D01*
Y525653D01*
X347642D01*
X650606Y459754D02*
Y455755D01*
X652606Y453756D01*
X654605Y455755D01*
Y459754D01*
X656604D02*
X658604D01*
X657604D01*
Y453756D01*
X656604D01*
X658604D01*
X661603D02*
Y459754D01*
X665601Y453756D01*
Y459754D01*
X526652Y687132D02*
X525653Y688131D01*
X523653D01*
X522653Y687132D01*
Y683133D01*
X523653Y682133D01*
X525653D01*
X526652Y683133D01*
Y685132D01*
X524653D01*
X528652Y686132D02*
Y682133D01*
Y684132D01*
X529651Y685132D01*
X530651Y686132D01*
X531651D01*
X535649Y682133D02*
X537649D01*
X538648Y683133D01*
Y685132D01*
X537649Y686132D01*
X535649D01*
X534650Y685132D01*
Y683133D01*
X535649Y682133D01*
X540648Y686132D02*
Y683133D01*
X541647Y682133D01*
X544646D01*
Y686132D01*
X546646Y680134D02*
Y686132D01*
X549645D01*
X550644Y685132D01*
Y683133D01*
X549645Y682133D01*
X546646D01*
X558642D02*
X560641D01*
X559642D01*
Y688131D01*
X558642Y687132D01*
X563640D02*
X564640Y688131D01*
X566639D01*
X567639Y687132D01*
Y686132D01*
X566639Y685132D01*
X565640D01*
X566639D01*
X567639Y684132D01*
Y683133D01*
X566639Y682133D01*
X564640D01*
X563640Y683133D01*
X483284Y697974D02*
Y691976D01*
X485283Y693975D01*
X487282Y691976D01*
Y697974D01*
X489282Y691976D02*
Y697974D01*
X491281Y695974D01*
X493280Y697974D01*
Y691976D01*
X499278Y696974D02*
X498279Y697974D01*
X496279D01*
X495280Y696974D01*
Y692975D01*
X496279Y691976D01*
X498279D01*
X499278Y692975D01*
X507276Y695974D02*
Y692975D01*
X508275Y691976D01*
X509275Y692975D01*
X510275Y691976D01*
X511274Y692975D01*
Y695974D01*
X514273D02*
X516273D01*
X517273Y694975D01*
Y691976D01*
X514273D01*
X513274Y692975D01*
X514273Y693975D01*
X517273D01*
X520271Y696974D02*
Y695974D01*
X519272D01*
X521271D01*
X520271D01*
Y692975D01*
X521271Y691976D01*
X527269D02*
X525270D01*
X524270Y692975D01*
Y694975D01*
X525270Y695974D01*
X527269D01*
X528269Y694975D01*
Y693975D01*
X524270D01*
X530268Y695974D02*
Y691976D01*
Y693975D01*
X531268Y694975D01*
X532268Y695974D01*
X533267D01*
X542264Y691976D02*
Y695974D01*
X544264Y697974D01*
X546263Y695974D01*
Y691976D01*
Y694975D01*
X542264D01*
X548262Y691976D02*
Y695974D01*
X551262D01*
X552261Y694975D01*
Y691976D01*
X555260Y695974D02*
X557260D01*
X558259Y694975D01*
Y691976D01*
X555260D01*
X554260Y692975D01*
X555260Y693975D01*
X558259D01*
X560259Y691976D02*
X562258D01*
X561258D01*
Y697974D01*
X560259D01*
X565257Y695974D02*
Y692975D01*
X566257Y691976D01*
X569256D01*
Y690976D01*
X568256Y689976D01*
X567256D01*
X569256Y691976D02*
Y695974D01*
X571255Y691976D02*
X574254D01*
X575254Y692975D01*
X574254Y693975D01*
X572255D01*
X571255Y694975D01*
X572255Y695974D01*
X575254D01*
X580252Y691976D02*
X578253D01*
X577253Y692975D01*
Y694975D01*
X578253Y695974D01*
X580252D01*
X581252Y694975D01*
Y693975D01*
X577253D01*
X583251Y695974D02*
Y691976D01*
Y693975D01*
X584251Y694975D01*
X585251Y695974D01*
X586250D01*
X256906Y264903D02*
Y258905D01*
X258905Y260904D01*
X260904Y258905D01*
Y264903D01*
X262904Y258905D02*
Y264903D01*
X264903Y262904D01*
X266902Y264903D01*
Y258905D01*
X272900Y263903D02*
X271901Y264903D01*
X269901D01*
X268902Y263903D01*
Y259905D01*
X269901Y258905D01*
X271901D01*
X272900Y259905D01*
X280898Y262904D02*
Y259905D01*
X281897Y258905D01*
X282897Y259905D01*
X283897Y258905D01*
X284896Y259905D01*
Y262904D01*
X287895D02*
X289895D01*
X290895Y261904D01*
Y258905D01*
X287895D01*
X286896Y259905D01*
X287895Y260904D01*
X290895D01*
X293894Y263903D02*
Y262904D01*
X292894D01*
X294893D01*
X293894D01*
Y259905D01*
X294893Y258905D01*
X300891D02*
X298892D01*
X297892Y259905D01*
Y261904D01*
X298892Y262904D01*
X300891D01*
X301891Y261904D01*
Y260904D01*
X297892D01*
X303890Y262904D02*
Y258905D01*
Y260904D01*
X304890Y261904D01*
X305890Y262904D01*
X306889D01*
X315886Y258905D02*
Y262904D01*
X317886Y264903D01*
X319885Y262904D01*
Y258905D01*
Y261904D01*
X315886D01*
X321884Y258905D02*
Y262904D01*
X324884D01*
X325883Y261904D01*
Y258905D01*
X328882Y262904D02*
X330882D01*
X331881Y261904D01*
Y258905D01*
X328882D01*
X327883Y259905D01*
X328882Y260904D01*
X331881D01*
X333881Y258905D02*
X335880D01*
X334880D01*
Y264903D01*
X333881D01*
X338879Y262904D02*
Y259905D01*
X339879Y258905D01*
X342878D01*
Y257905D01*
X341878Y256906D01*
X340878D01*
X342878Y258905D02*
Y262904D01*
X344877D02*
X348876D01*
X344877Y258905D01*
X348876D01*
X353874D02*
X351875D01*
X350875Y259905D01*
Y261904D01*
X351875Y262904D01*
X353874D01*
X354874Y261904D01*
Y260904D01*
X350875D01*
X356873Y262904D02*
Y258905D01*
Y260904D01*
X357873Y261904D01*
X358873Y262904D01*
X359872D01*
X300274Y254061D02*
X299275Y255060D01*
X297275D01*
X296276Y254061D01*
Y250062D01*
X297275Y249062D01*
X299275D01*
X300274Y250062D01*
Y252061D01*
X298275D01*
X302274Y253061D02*
Y249062D01*
Y251062D01*
X303273Y252061D01*
X304273Y253061D01*
X305273D01*
X309271Y249062D02*
X311271D01*
X312270Y250062D01*
Y252061D01*
X311271Y253061D01*
X309271D01*
X308272Y252061D01*
Y250062D01*
X309271Y249062D01*
X314270Y253061D02*
Y250062D01*
X315269Y249062D01*
X318268D01*
Y253061D01*
X320268Y247063D02*
Y253061D01*
X323267D01*
X324267Y252061D01*
Y250062D01*
X323267Y249062D01*
X320268D01*
X332264D02*
X334263D01*
X333264D01*
Y255060D01*
X332264Y254061D01*
X337262D02*
X338262Y255060D01*
X340261D01*
X341261Y254061D01*
Y253061D01*
X340261Y252061D01*
X339262D01*
X340261D01*
X341261Y251062D01*
Y250062D01*
X340261Y249062D01*
X338262D01*
X337262Y250062D01*
X424228Y26683D02*
Y22684D01*
X426228Y20685D01*
X428227Y22684D01*
Y26683D01*
X430226D02*
X432226D01*
X431226D01*
Y20685D01*
X430226D01*
X432226D01*
X435225D02*
Y26683D01*
X439223Y20685D01*
Y26683D01*
X113266Y94581D02*
X112267Y95581D01*
X110267D01*
X109268Y94581D01*
Y93581D01*
X110267Y92582D01*
X112267D01*
X113266Y91582D01*
Y90582D01*
X112267Y89583D01*
X110267D01*
X109268Y90582D01*
X115266Y95581D02*
Y89583D01*
X118265D01*
X119264Y90582D01*
Y94581D01*
X118265Y95581D01*
X115266D01*
X121264Y89583D02*
Y93581D01*
X123263Y95581D01*
X125263Y93581D01*
Y89583D01*
Y92582D01*
X121264D01*
X188008Y84738D02*
X189007Y85738D01*
X191007D01*
X192007Y84738D01*
Y83739D01*
X191007Y82739D01*
X190007D01*
X191007D01*
X192007Y81739D01*
Y80740D01*
X191007Y79740D01*
X189007D01*
X188008Y80740D01*
X194006Y79740D02*
Y80740D01*
X195006D01*
Y79740D01*
X194006D01*
X199004Y84738D02*
X200004Y85738D01*
X202003D01*
X203003Y84738D01*
Y83739D01*
X202003Y82739D01*
X201004D01*
X202003D01*
X203003Y81739D01*
Y80740D01*
X202003Y79740D01*
X200004D01*
X199004Y80740D01*
X205002Y85738D02*
Y81739D01*
X207002Y79740D01*
X209001Y81739D01*
Y85738D01*
X251062Y94581D02*
X250062Y95581D01*
X248063D01*
X247063Y94581D01*
Y90582D01*
X248063Y89583D01*
X250062D01*
X251062Y90582D01*
Y92582D01*
X249062D01*
X253061Y89583D02*
Y95581D01*
X257060Y89583D01*
Y95581D01*
X259059D02*
Y89583D01*
X262058D01*
X263058Y90582D01*
Y94581D01*
X262058Y95581D01*
X259059D01*
X119110Y16841D02*
Y10842D01*
X122109D01*
X123109Y11842D01*
Y15841D01*
X122109Y16841D01*
X119110D01*
X125108Y10842D02*
X127108D01*
X126108D01*
Y16841D01*
X125108Y15841D01*
X130107D02*
X131106Y16841D01*
X133106D01*
X134105Y15841D01*
Y14841D01*
X133106Y13842D01*
X132106D01*
X133106D01*
X134105Y12842D01*
Y11842D01*
X133106Y10842D01*
X131106D01*
X130107Y11842D01*
X113266Y104424D02*
X112267Y105423D01*
X110267D01*
X109268Y104424D01*
Y103424D01*
X110267Y102424D01*
X112267D01*
X113266Y101425D01*
Y100425D01*
X112267Y99425D01*
X110267D01*
X109268Y100425D01*
X119264Y104424D02*
X118265Y105423D01*
X116265D01*
X115266Y104424D01*
Y100425D01*
X116265Y99425D01*
X118265D01*
X119264Y100425D01*
X121264Y105423D02*
Y99425D01*
X125263D01*
X221534Y104424D02*
X220534Y105423D01*
X218535D01*
X217535Y104424D01*
Y100425D01*
X218535Y99425D01*
X220534D01*
X221534Y100425D01*
Y102424D01*
X219535D01*
X223534Y99425D02*
Y105423D01*
X227532Y99425D01*
Y105423D01*
X229532D02*
Y99425D01*
X232531D01*
X233530Y100425D01*
Y104424D01*
X232531Y105423D01*
X229532D01*
X220534Y85738D02*
X218535D01*
X217535Y84738D01*
Y80740D01*
X218535Y79740D01*
X220534D01*
X221534Y80740D01*
Y84738D01*
X220534Y85738D01*
X223534D02*
Y80740D01*
X224533Y79740D01*
X226533D01*
X227532Y80740D01*
Y85738D01*
X229532D02*
X233530D01*
X231531D01*
Y79740D01*
X276590Y85738D02*
X278590D01*
X277590D01*
Y79740D01*
X276590D01*
X278590D01*
X281589D02*
Y85738D01*
X285588Y79740D01*
Y85738D01*
X266748Y148638D02*
X270747D01*
X286433Y150637D02*
X290432D01*
X288432Y152637D02*
Y148638D01*
X310117Y163479D02*
X309117Y164478D01*
X307118D01*
X306118Y163479D01*
Y159480D01*
X307118Y158480D01*
X309117D01*
X310117Y159480D01*
Y161479D01*
X308118D01*
X312116Y158480D02*
Y164478D01*
X316115Y158480D01*
Y164478D01*
X318114D02*
Y158480D01*
X321113D01*
X322113Y159480D01*
Y163479D01*
X321113Y164478D01*
X318114D01*
X404543Y138795D02*
Y142794D01*
X406543Y144793D01*
X408542Y142794D01*
Y138795D01*
Y141794D01*
X404543D01*
X388857Y144793D02*
X384858D01*
Y141794D01*
X386858Y142794D01*
X387857D01*
X388857Y141794D01*
Y139795D01*
X387857Y138795D01*
X385858D01*
X384858Y139795D01*
X390856Y144793D02*
Y140795D01*
X392856Y138795D01*
X394855Y140795D01*
Y144793D01*
X428227Y45368D02*
X427227Y46368D01*
X425228D01*
X424228Y45368D01*
Y41370D01*
X425228Y40370D01*
X427227D01*
X428227Y41370D01*
Y43369D01*
X426228D01*
X430226Y40370D02*
Y46368D01*
X434225Y40370D01*
Y46368D01*
X436225D02*
Y40370D01*
X439223D01*
X440223Y41370D01*
Y45368D01*
X439223Y46368D01*
X436225D01*
X119110Y35526D02*
X120110Y36526D01*
X122109D01*
X123109Y35526D01*
Y34526D01*
X122109Y33527D01*
X121110D01*
X122109D01*
X123109Y32527D01*
Y31527D01*
X122109Y30528D01*
X120110D01*
X119110Y31527D01*
X125108Y30528D02*
Y31527D01*
X126108D01*
Y30528D01*
X125108D01*
X130107Y35526D02*
X131106Y36526D01*
X133106D01*
X134105Y35526D01*
Y34526D01*
X133106Y33527D01*
X132106D01*
X133106D01*
X134105Y32527D01*
Y31527D01*
X133106Y30528D01*
X131106D01*
X130107Y31527D01*
X136105Y36526D02*
Y32527D01*
X138104Y30528D01*
X140103Y32527D01*
Y36526D01*
X20685Y75896D02*
Y69898D01*
X23684D01*
X24684Y70897D01*
Y74896D01*
X23684Y75896D01*
X20685D01*
X26683D02*
X30682D01*
Y74896D01*
X26683Y70897D01*
Y69898D01*
X40370Y249062D02*
X44369D01*
X42369Y251062D02*
Y247063D01*
X138795Y258905D02*
X142794D01*
X140795Y260904D02*
Y256906D01*
D14*
X171850Y45236D02*
G03*
X171850Y45236I-14370J0D01*
G01*
X407756Y24429D02*
X419016D01*
X407756D02*
Y46201D01*
X419016D01*
Y24429D02*
Y46201D01*
X213524Y92894D02*
Y105847D01*
X170177Y92894D02*
X213524D01*
X170177D02*
Y105847D01*
X213524D01*
X419685Y152539D02*
Y164311D01*
X387717Y152539D02*
X419685D01*
X387717D02*
Y164311D01*
X419685D01*
X301575Y152539D02*
Y164311D01*
X269606Y152539D02*
X301575D01*
X269606D02*
Y164311D01*
X301575D01*
X234173Y66102D02*
X277638D01*
X234173D02*
Y86575D01*
X277638D01*
Y66102D02*
Y86575D01*
M02*
