G04*
G04 #@! TF.GenerationSoftware,Altium Limited,Altium Designer,20.1.14 (287)*
G04*
G04 Layer_Physical_Order=1*
G04 Layer_Color=255*
%FSLAX25Y25*%
%MOIN*%
G70*
G04*
G04 #@! TF.SameCoordinates,E164291B-CF09-4FE7-BB31-66095F1D64E0*
G04*
G04*
G04 #@! TF.FilePolarity,Positive*
G04*
G01*
G75*
%ADD14R,0.12247X0.05097*%
G04:AMPARAMS|DCode=15|XSize=122.47mil|YSize=50.97mil|CornerRadius=25.49mil|HoleSize=0mil|Usage=FLASHONLY|Rotation=180.000|XOffset=0mil|YOffset=0mil|HoleType=Round|Shape=RoundedRectangle|*
%AMROUNDEDRECTD15*
21,1,0.12247,0.00000,0,0,180.0*
21,1,0.07150,0.05097,0,0,180.0*
1,1,0.05097,-0.03575,0.00000*
1,1,0.05097,0.03575,0.00000*
1,1,0.05097,0.03575,0.00000*
1,1,0.05097,-0.03575,0.00000*
%
%ADD15ROUNDEDRECTD15*%
%ADD31C,0.01968*%
%ADD32C,0.15748*%
%ADD33C,0.05512*%
%ADD34C,0.05709*%
%ADD35C,0.04724*%
%ADD36C,0.06791*%
%ADD37R,0.06791X0.06791*%
%ADD38C,0.06496*%
%ADD39R,0.06496X0.06496*%
%ADD40R,0.06791X0.06791*%
%ADD41C,0.07618*%
%ADD42R,0.07618X0.07618*%
%ADD43C,0.04528*%
%ADD44R,0.04528X0.04528*%
%ADD45C,0.02362*%
%ADD46C,0.05000*%
D14*
X100945Y18740D02*
D03*
D15*
Y28740D02*
D03*
Y38740D02*
D03*
Y48740D02*
D03*
Y58740D02*
D03*
Y68740D02*
D03*
Y78740D02*
D03*
Y88740D02*
D03*
Y98740D02*
D03*
Y108740D02*
D03*
Y118740D02*
D03*
Y128740D02*
D03*
Y138740D02*
D03*
Y148740D02*
D03*
Y158740D02*
D03*
X39370D02*
D03*
Y148740D02*
D03*
Y138740D02*
D03*
Y128740D02*
D03*
Y118740D02*
D03*
Y108740D02*
D03*
Y98740D02*
D03*
Y88740D02*
D03*
Y78740D02*
D03*
Y68740D02*
D03*
Y58740D02*
D03*
Y48740D02*
D03*
Y38740D02*
D03*
Y28740D02*
D03*
Y18740D02*
D03*
D31*
X249055Y52205D02*
Y90422D01*
X236221Y40315D02*
X236966D01*
X238283Y41632D01*
X238483D01*
X249055Y52205D01*
X97370Y148740D02*
X100945D01*
X88583Y139953D02*
X97370Y148740D01*
X88583Y118110D02*
Y139953D01*
X54499Y84026D02*
X88583Y118110D01*
X33843Y84026D02*
X54499D01*
X31081Y124026D02*
X35795Y128740D01*
X31081Y86788D02*
Y124026D01*
X35795Y128740D02*
X39370D01*
X31081Y86788D02*
X33843Y84026D01*
X39370Y118740D02*
X50704D01*
X128814Y196850D01*
X295276Y177165D02*
X299971Y172470D01*
Y162805D02*
Y172470D01*
X295590Y158425D02*
X299971Y162805D01*
X403543Y168583D02*
Y196850D01*
Y168583D02*
X413701Y158425D01*
X423228Y50157D02*
Y59055D01*
X413386Y40315D02*
X423228Y50157D01*
X141988Y53405D02*
X154232D01*
X137795Y49213D02*
X141988Y53405D01*
X154232D02*
X157480Y50157D01*
Y137795D02*
X167323D01*
X146535Y148740D02*
X157480Y137795D01*
X206693Y118110D02*
X211083Y113721D01*
Y103602D02*
Y113721D01*
X206850Y99370D02*
X211083Y103602D01*
X265905Y69685D02*
X295276Y40315D01*
X265905Y69685D02*
Y79685D01*
X255906Y128740D02*
X285591Y158425D01*
X255906Y118110D02*
Y128740D01*
X196068Y133845D02*
X206478D01*
X231373Y94217D02*
Y108950D01*
X206478Y133845D02*
X231373Y108950D01*
X136744Y19685D02*
X157480D01*
X135799Y18740D02*
X136744Y19685D01*
X116095Y40315D02*
X157480D01*
X100945Y18740D02*
X135799D01*
X44842Y261378D02*
X50315Y255906D01*
X33898Y261378D02*
X44842D01*
X29370Y256850D02*
X33898Y261378D01*
X64098Y255906D02*
X70947Y249057D01*
X59055Y255906D02*
X64098D01*
X50315D02*
X59055D01*
X35795Y68740D02*
X39370D01*
X78740Y255906D02*
X79685D01*
X77795D02*
X78740D01*
X102732Y28740D02*
X104520D01*
X100945Y98740D02*
X101260Y99055D01*
X100945Y108740D02*
X104520D01*
X116095Y40315D02*
X118110Y42331D01*
X176535Y99055D02*
X176850Y99370D01*
X59370Y217480D02*
Y236850D01*
X164431Y63346D02*
X168722Y59055D01*
X255906Y60000D02*
Y79685D01*
X118110Y42331D02*
Y59055D01*
X236221Y40315D02*
Y70000D01*
X255906Y40315D02*
Y60000D01*
X19370Y85165D02*
Y217480D01*
X70947Y156742D02*
Y249057D01*
X39370Y128740D02*
X42945D01*
X79685Y255906D02*
X83976Y260197D01*
X114764D02*
X118110Y256850D01*
X98110Y217480D02*
Y226850D01*
X118110Y59055D02*
X122402Y63346D01*
X137835Y78779D01*
X176221Y88740D02*
X186850Y99370D01*
X249055Y90422D02*
X257059Y98425D01*
X354331Y80000D02*
X354646Y79685D01*
X403701Y99055D02*
X413386Y89370D01*
X19370Y85165D02*
X35795Y68740D01*
X374646Y40000D02*
X393701Y59055D01*
X413701Y79685D02*
X418405Y84390D01*
X403701Y158425D02*
X418405Y143720D01*
X176260Y78779D02*
X196850Y99370D01*
X275590Y118110D02*
X294646Y99055D01*
X418405Y84390D02*
Y143720D01*
X100945Y148740D02*
X146535D01*
X83976Y260197D02*
X114764D01*
X168722Y59055D02*
X196850D01*
X257059Y98425D02*
X275590D01*
X354331Y40000D02*
X374646D01*
X334016D02*
X354331D01*
X294646Y99055D02*
X354331D01*
X403701D01*
X354331Y139055D02*
X373701D01*
X104520Y28740D02*
X116095Y40315D01*
X70947Y249057D02*
X77795Y255906D01*
X236221Y20630D02*
X255906Y40315D01*
X236221Y70000D02*
X245905Y79685D01*
X255906Y118110D02*
X275590D01*
X217480Y158425D02*
X275590D01*
X295276Y40315D02*
X305276Y30315D01*
X104520Y108740D02*
X113890Y118110D01*
X42945Y128740D02*
X70947Y156742D01*
X39370Y256850D02*
X59370Y236850D01*
X231373Y94217D02*
X245905Y79685D01*
X196850Y137795D02*
X217480Y158425D01*
X171173Y158740D02*
X196068Y133845D01*
X98110Y226850D02*
X128110Y256850D01*
X100945Y88740D02*
X176221D01*
X101260Y99055D02*
X176535D01*
X128814Y196850D02*
X157480D01*
X305276Y30315D02*
X413386D01*
X354646Y79685D02*
X413701D01*
X137835Y78779D02*
X176260D01*
X122402Y63346D02*
X164431D01*
X113890Y118110D02*
X177165D01*
X100945Y158740D02*
X171173D01*
X255906Y60000D02*
X295276Y20630D01*
X373701Y139055D02*
X413386Y99370D01*
X275590Y98425D02*
X334016Y40000D01*
D32*
X442913Y285433D02*
D03*
Y9843D02*
D03*
X9843D02*
D03*
Y285433D02*
D03*
D33*
X354331Y139055D02*
D03*
Y99055D02*
D03*
Y39055D02*
D03*
Y79055D02*
D03*
X19370Y217480D02*
D03*
X59370D02*
D03*
X138110D02*
D03*
X98110D02*
D03*
D34*
X413386Y79370D02*
D03*
Y89370D02*
D03*
Y99370D02*
D03*
D35*
X39370Y256850D02*
D03*
X29370D02*
D03*
X128110D02*
D03*
X118110D02*
D03*
X295276Y40315D02*
D03*
Y20630D02*
D03*
X236221D02*
D03*
Y40315D02*
D03*
D36*
X413386D02*
D03*
X393701Y158425D02*
D03*
X403701D02*
D03*
X275590D02*
D03*
X285591D02*
D03*
D37*
X413386Y30315D02*
D03*
D38*
X176850Y99370D02*
D03*
X186850D02*
D03*
X196850D02*
D03*
D39*
X206850D02*
D03*
D40*
X413701Y158425D02*
D03*
X295590D02*
D03*
D41*
X245905Y79685D02*
D03*
X255906D02*
D03*
D42*
X265905D02*
D03*
D43*
X157480Y50157D02*
D03*
D44*
Y40315D02*
D03*
D45*
X295276Y177165D02*
D03*
X403543Y196850D02*
D03*
X423228Y59055D02*
D03*
X137795Y49213D02*
D03*
X167323Y137795D02*
D03*
X206693Y118110D02*
D03*
X157480Y19685D02*
D03*
X59055Y255906D02*
D03*
X157480Y196850D02*
D03*
X196850Y59055D02*
D03*
Y137795D02*
D03*
X255906Y118110D02*
D03*
X393701Y59055D02*
D03*
X177165Y118110D02*
D03*
D46*
X78740Y255906D02*
D03*
M02*
